<svg height="512" viewBox="0 0 512 512" width="512" xmlns="http://www.w3.org/2000/svg"><g id="Flat"><path d="m432 112h-16v68.686l-32-32v-36.686h-16v344h16v-28.686l34.343 34.343 13.657 2.343zm-48 187.314 32 32v41.372l-32-32zm0-22.628v-41.372l32 32v41.372zm32-73.372v41.372l-32-32v-41.372zm-32 160 32 32v41.372l-32-32z" fill="#b2b1b4"/><g fill="#959494"><path d="m376 16h16v56h-16z"/><path d="m408 32h16v32h-16z"/><path d="m80 40h16v40h-16z"/><path d="m88 288a32 32 0 0 1 -8-62.988v-113.012h16v120a8 8 0 0 1 -8 8 16 16 0 1 0 16 16h16a32.036 32.036 0 0 1 -32 32z"/><path d="m112 56h16v24h-16z"/></g><path d="m56 328h128v80h-128z" fill="#f8bc1e"/><path d="m80 352h16v32h-16z" fill="#f79726"/><path d="m112 352h16v32h-16z" fill="#f79726"/><path d="m144 352h16v32h-16z" fill="#f79726"/><path d="m152 248h128v80h-128z" fill="#0093b9"/><path d="m176 272h16v32h-16z" fill="#067b98"/><path d="m208 272h16v32h-16z" fill="#067b98"/><path d="m240 272h16v32h-16z" fill="#067b98"/><path d="m184 328h128v80h-128z" fill="#eb5849"/><path d="m208 352h16v32h-16z" fill="#d4342f"/><path d="m240 352h16v32h-16z" fill="#d4342f"/><path d="m272 352h16v32h-16z" fill="#d4342f"/><path d="m328 456h144v32h-144z" fill="#808080"/><path d="m424 64h56v48l-40 16h-16z" fill="#b2b1b4"/><path d="m376 88v-16h-320a8 8 0 0 0 -8 8v32a8 8 0 0 0 8 8h320v-16h-36.686l-16-16zm-180.686 0h41.372l16 16h-41.372zm-6.628 16h-41.372l-16-16h41.372zm-124.686-16h44.686l16 16h-60.686zm252.686 16h-41.372l-16-16h41.372z" fill="#b2b1b4"/><path d="m160 408h128v80h-128z" fill="#0093b9"/><path d="m184 432h16v32h-16z" fill="#067b98"/><path d="m216 432h16v32h-16z" fill="#067b98"/><path d="m248 432h16v32h-16z" fill="#067b98"/><path d="m32 408h128v80h-128z" fill="#eb5849"/><path d="m56 432h16v32h-16z" fill="#d4342f"/><path d="m88 432h16v32h-16z" fill="#d4342f"/><path d="m120 432h16v32h-16z" fill="#d4342f"/><path d="m80 40h16v16h-16z" fill="#eb5849"/><path d="m360 56h80v80h-80z" fill="#808080"/><path d="m376 16h16v16h-16z" fill="#eb5849"/></g></svg>